<?xml version="1.0" encoding="UTF-8"?>
<svg id="Layer_1" data-name="Layer 1" xmlns="http://www.w3.org/2000/svg" viewBox="0 0 1434.79 1043.37">
	<defs>
		<style>
			.cls-1 {
			font-family: Satoshi-Light, Satoshi;
			font-size: 102.33px;
			font-weight: 300;
			}

			.cls-1, .cls-2 {
			fill: #fff;
			}
		</style>
	</defs>
	<path class="cls-2"
		  d="M1102.64,129.04l-23.23,20.45-166.24,146.33-166.25,146.33h0c-14.97,13.18-34.23,20.45-54.17,20.45h-273.51c-19.87,0-37.9-7.77-51.26-20.45-14.31-13.58-23.23-32.78-23.23-54.05V129.04l23.23,20.45,166.25,146.33,166.24-146.33h0c14.97-13.18,34.23-20.45,54.17-20.45h348Z"/>
	<path class="cls-2"
		  d="M1102.64,463.02l-23.23,20.45-166.24,146.33-166.25,146.33h0c-14.97,13.18-34.23,20.45-54.17,20.45h-273.51c-19.87,0-37.9-7.77-51.26-20.45-14.31-13.58-23.23-32.78-23.23-54.05v-259.07l23.23,20.45,166.25,146.33,166.24-146.33h0c14.97-13.18,34.23-20.45,54.17-20.45h348Z"/>
	<path class="cls-2" d="M913.17,631.15h189.46v107.2c0,32.14-26.09,58.23-58.23,58.23h-131.23v-165.43h0Z"/>
</svg>